<svg id="Слой_1" data-name="Слой 1" xmlns="http://www.w3.org/2000/svg" viewBox="0 0 276.12 70.82"><defs><style>.cls-1{fill:#ede8da;}</style></defs><title>tdl_full_logo</title><path class="cls-1" d="M89.12,20.58H81.44V41.41H75.27V20.58H67.73V15.82H89.12Z"/><path class="cls-1" d="M99.21,41.41a6.58,6.58,0,0,1-.56-1.7,5.52,5.52,0,0,1-4.57,2,6.7,6.7,0,0,1-4.57-1.63,5.14,5.14,0,0,1-1.88-4.08,5.34,5.34,0,0,1,2.28-4.68c1.52-1.05,3.74-1.58,6.64-1.58h1.83v-1c0-1.75-.75-2.63-2.26-2.63A1.86,1.86,0,0,0,94,28.24H88.08a5.31,5.31,0,0,1,2.35-4.48,9.83,9.83,0,0,1,6-1.72,8.65,8.65,0,0,1,5.75,1.77,6.16,6.16,0,0,1,2.16,4.87V37.1a8.76,8.76,0,0,0,.81,4v.3ZM95.5,37.54a3.37,3.37,0,0,0,1.84-.47,3.09,3.09,0,0,0,1-1.07V33H96.66c-2.06,0-3.09.92-3.09,2.77A1.7,1.7,0,0,0,94.11,37,2,2,0,0,0,95.5,37.54Z"/><path class="cls-1" d="M113.39,24.43a6.51,6.51,0,0,1,9.6-.53,8.39,8.39,0,0,1,1.64,5.5v12h-5.94V29.54a3.34,3.34,0,0,0-.62-2.22,2.66,2.66,0,0,0-2.09-.71,2.87,2.87,0,0,0-2.59,1.16V41.41h-5.92v-27h5.92Z"/><path class="cls-1" d="M127.18,31.76a11.64,11.64,0,0,1,1.95-7.12,6.42,6.42,0,0,1,5.45-2.6,5.48,5.48,0,0,1,4.29,2V14.41h5.94v27h-5.33l-.3-2a5.61,5.61,0,0,1-4.64,2.39,6.43,6.43,0,0,1-5.38-2.6Q127.18,36.57,127.18,31.76Zm5.92.37q0,5.06,3,5.06a2.93,2.93,0,0,0,2.82-1.65V28.3a2.84,2.84,0,0,0-2.78-1.69q-2.75,0-3,4.43Z"/><path class="cls-1" d="M159.68,27.75l-2-.14c-1.87,0-3.06.59-3.59,1.76v12h-5.92v-19h5.55l.19,2.44A4.6,4.6,0,0,1,158.13,22a5.8,5.8,0,0,1,1.65.21Z"/><path class="cls-1" d="M170.68,41.76a9.76,9.76,0,0,1-7.08-2.61,9,9,0,0,1-2.71-6.79v-.49A11.72,11.72,0,0,1,162,26.71a7.88,7.88,0,0,1,3.16-3.45A9.55,9.55,0,0,1,170.05,22a8.24,8.24,0,0,1,6.33,2.49,9.79,9.79,0,0,1,2.32,6.93v2.3H166.92a4.25,4.25,0,0,0,1.39,2.52,4.12,4.12,0,0,0,2.78.91,5.3,5.3,0,0,0,4.39-2l2.71,3.2a7.67,7.67,0,0,1-3.14,2.44A10.65,10.65,0,0,1,170.68,41.76ZM170,26.61q-2.59,0-3.09,3.44h6V29.6a3,3,0,0,0-.72-2.21A2.9,2.9,0,0,0,170,26.61Z"/><path class="cls-1" d="M186.68,22.39l.19,2.23A6.55,6.55,0,0,1,192.3,22q3.62,0,4.87,2.86A6.32,6.32,0,0,1,202.76,22q5.79,0,5.94,7V41.41h-5.94v-12a3.58,3.58,0,0,0-.49-2.12,2.09,2.09,0,0,0-1.79-.67,2.8,2.8,0,0,0-2.62,1.56l0,.25v13h-5.95v-12a3.76,3.76,0,0,0-.47-2.16,2.08,2.08,0,0,0-1.81-.67,2.83,2.83,0,0,0-2.6,1.56V41.41h-5.93v-19Z"/><path class="cls-1" d="M218.34,41.41h-6v-27h6Z"/><path class="cls-1" d="M232.7,41.41a6.93,6.93,0,0,1-.57-1.7,5.5,5.5,0,0,1-4.57,2A6.74,6.74,0,0,1,223,40.13a5.17,5.17,0,0,1-1.88-4.08,5.35,5.35,0,0,1,2.29-4.68c1.52-1.05,3.74-1.58,6.64-1.58h1.83v-1c0-1.75-.75-2.63-2.27-2.63a1.86,1.86,0,0,0-2.11,2.09h-5.92a5.31,5.31,0,0,1,2.35-4.48,9.83,9.83,0,0,1,6-1.72,8.67,8.67,0,0,1,5.75,1.77,6.16,6.16,0,0,1,2.16,4.87V37.1a8.76,8.76,0,0,0,.81,4v.3ZM229,37.54a3.37,3.37,0,0,0,1.84-.47,3.09,3.09,0,0,0,1-1.07V33h-1.72c-2.06,0-3.1.92-3.1,2.77A1.7,1.7,0,0,0,227.6,37,2,2,0,0,0,229,37.54Z"/><path class="cls-1" d="M251.8,41.41a7,7,0,0,1-.56-1.7,5.5,5.5,0,0,1-4.57,2,6.74,6.74,0,0,1-4.57-1.63,5.17,5.17,0,0,1-1.88-4.08,5.32,5.32,0,0,1,2.29-4.68q2.28-1.57,6.64-1.58H251v-1c0-1.75-.76-2.63-2.27-2.63a1.86,1.86,0,0,0-2.11,2.09h-5.92A5.32,5.32,0,0,1,243,23.76,9.86,9.86,0,0,1,249,22a8.67,8.67,0,0,1,5.75,1.77,6.22,6.22,0,0,1,2.16,4.87V37.1a8.51,8.51,0,0,0,.81,4v.3Zm-3.7-3.87a3.34,3.34,0,0,0,1.83-.47A3,3,0,0,0,251,36V33h-1.72c-2.07,0-3.1.92-3.1,2.77a1.67,1.67,0,0,0,.55,1.31A1.93,1.93,0,0,0,248.1,37.54Z"/><path class="cls-1" d="M270.16,36.07a1.39,1.39,0,0,0-.79-1.22,12.35,12.35,0,0,0-3-1,13.51,13.51,0,0,1-3.66-1.29,6.05,6.05,0,0,1-2.19-1.94,4.58,4.58,0,0,1-.76-2.62,5.27,5.27,0,0,1,2.16-4.32A8.91,8.91,0,0,1,267.57,22a9.91,9.91,0,0,1,6.05,1.7,5.36,5.36,0,0,1,2.28,4.49H270c0-1.53-.8-2.29-2.41-2.29a2.35,2.35,0,0,0-1.56.52,1.6,1.6,0,0,0-.63,1.29,1.49,1.49,0,0,0,.77,1.29,7.55,7.55,0,0,0,2.47.8,21.81,21.81,0,0,1,3,.76c2.86,1,4.29,2.75,4.29,5.29a5,5,0,0,1-2.31,4.24,10.15,10.15,0,0,1-6,1.63,10.29,10.29,0,0,1-4.36-.88,7.31,7.31,0,0,1-3-2.39,5.45,5.45,0,0,1-1.07-3.18h5.54a2.27,2.27,0,0,0,.88,1.92,3.56,3.56,0,0,0,2.16.61,2.82,2.82,0,0,0,1.82-.49A1.6,1.6,0,0,0,270.16,36.07Z"/><path class="cls-1" d="M75.16,65.41V48.35H81a7.11,7.11,0,0,1,4.41,1.16A4.09,4.09,0,0,1,86.93,53a3.6,3.6,0,0,1-.64,2.11,4,4,0,0,1-1.85,1.46,3.73,3.73,0,0,1,2.14,1.41,4.07,4.07,0,0,1,.76,2.49,4.56,4.56,0,0,1-1.54,3.69,6.71,6.71,0,0,1-4.42,1.29Zm3-9.88H81a3.36,3.36,0,0,0,2.17-.63A2.16,2.16,0,0,0,84,53.13a2.19,2.19,0,0,0-.72-1.83A3.65,3.65,0,0,0,81,50.74H78.13Zm0,2.18V63h3.29a3.19,3.19,0,0,0,2.18-.69,2.73,2.73,0,0,0-1.93-4.64Z"/><path class="cls-1" d="M89.49,59a7.46,7.46,0,0,1,.74-3.35,5.35,5.35,0,0,1,2.08-2.3,5.79,5.79,0,0,1,3.07-.8,5.52,5.52,0,0,1,4.16,1.65,6.45,6.45,0,0,1,1.73,4.38v.67a7.53,7.53,0,0,1-.72,3.35,5.33,5.33,0,0,1-2.06,2.29,5.87,5.87,0,0,1-3.1.8,5.48,5.48,0,0,1-4.29-1.78,6.83,6.83,0,0,1-1.62-4.77Zm2.85.25a5.08,5.08,0,0,0,.81,3.06,2.63,2.63,0,0,0,2.25,1.11,2.58,2.58,0,0,0,2.24-1.12,5.62,5.62,0,0,0,.81-3.3,5,5,0,0,0-.83-3,2.78,2.78,0,0,0-4.46,0A5.59,5.59,0,0,0,92.34,59.2Z"/><path class="cls-1" d="M114.44,65.41H111.6V55h-4.95V65.41H103.8V52.73h10.64Z"/><path class="cls-1" d="M128.25,52.73V65.41H125.4V55h-3.59l-.23,4.42A9.21,9.21,0,0,1,120.36,64a3.52,3.52,0,0,1-3.07,1.39h-.88V63L117,63a1.67,1.67,0,0,0,1.36-1.14,12,12,0,0,0,.55-3.7l.23-5.41Z"/><path class="cls-1" d="M130.74,59a7.46,7.46,0,0,1,.74-3.35,5.35,5.35,0,0,1,2.08-2.3,5.79,5.79,0,0,1,3.07-.8,5.52,5.52,0,0,1,4.16,1.65,6.45,6.45,0,0,1,1.73,4.38v.67a7.53,7.53,0,0,1-.72,3.35,5.33,5.33,0,0,1-2.06,2.29,5.87,5.87,0,0,1-3.1.8,5.48,5.48,0,0,1-4.29-1.78,6.83,6.83,0,0,1-1.62-4.77Zm2.85.25a5.08,5.08,0,0,0,.81,3.06,2.63,2.63,0,0,0,2.25,1.11,2.58,2.58,0,0,0,2.24-1.12,5.62,5.62,0,0,0,.81-3.3,5,5,0,0,0-.83-3,2.78,2.78,0,0,0-4.46,0A5.59,5.59,0,0,0,133.59,59.2Z"/><path class="cls-1" d="M154.57,55h-4.11V65.41h-2.85V55h-4.07V52.73h11Z"/><path class="cls-1" d="M164.38,52.73h2.83V65.41h-2.83V57l-5,8.46h-2.84V52.73h2.84v8.46Z"/><path class="cls-1" d="M183.75,61.91l3.75-9.18h3.56V65.41h-2.85V57l-3.49,8.39h-1.93L179.28,57v8.44h-2.84V52.73H180Z"/><path class="cls-1" d="M199.84,65.64a5.87,5.87,0,0,1-4.39-1.7,6.19,6.19,0,0,1-1.68-4.54v-.35a7.62,7.62,0,0,1,.73-3.4,5.54,5.54,0,0,1,2.06-2.32,5.36,5.36,0,0,1,2.95-.83,5,5,0,0,1,4,1.65,7,7,0,0,1,1.41,4.67V60h-8.28a3.76,3.76,0,0,0,1.05,2.49,3.13,3.13,0,0,0,2.31.91,3.86,3.86,0,0,0,3.19-1.58l1.53,1.46a5.06,5.06,0,0,1-2,1.77A6.34,6.34,0,0,1,199.84,65.64Zm-.34-10.86a2.38,2.38,0,0,0-1.89.82,4.25,4.25,0,0,0-.92,2.29h5.42v-.21a3.49,3.49,0,0,0-.76-2.17A2.41,2.41,0,0,0,199.5,54.78Z"/><path class="cls-1" d="M217.3,65.41h-2.85V61.18a10.24,10.24,0,0,1-2.32.26,5.71,5.71,0,0,1-4-1.25,4.58,4.58,0,0,1-1.37-3.58V52.72h2.84v3.89a2.62,2.62,0,0,0,.62,2,2.69,2.69,0,0,0,1.88.57,10.27,10.27,0,0,0,2.32-.27V52.73h2.85Z"/><path class="cls-1" d="M230.31,55h-4.12V65.41h-2.84V55h-4.07V52.73h11Z"/><path class="cls-1" d="M236.76,61.33l2.58-8.6h3l-5,14.6q-1.17,3.19-3.94,3.2a5.14,5.14,0,0,1-1.37-.21V68.11l.54,0a2.76,2.76,0,0,0,1.62-.39,2.6,2.6,0,0,0,.86-1.32l.41-1.09L231,52.73h3.07Z"/><polygon class="cls-1" points="54.12 65.41 46.64 57.92 46.64 38.05 37.57 28.99 37.57 65.41 46.64 65.41 46.64 65.41 54.12 65.41"/><polygon class="cls-1" points="46.64 24.71 54.12 32.19 54.12 24.71 54.12 17.23 54.12 15.77 32.37 15.77 32.37 10.58 37.57 10.58 26.99 0 16.42 10.58 21.61 10.58 21.61 15.77 0 15.77 0 17.23 0 24.71 0 32.19 7.48 24.71 21.61 24.71 21.61 65.41 32.37 65.41 32.37 24.71 46.64 24.71"/><polygon class="cls-1" points="7.48 50.45 0 50.45 0 65.41 7.48 57.93 7.48 65.41 16.42 65.41 16.42 28.99 7.48 37.92 7.48 50.45"/></svg>